<svg style="position: absolute; width: 0; height: 0; overflow: hidden;" version="1.1" xmlns="http://www.w3.org/2000/svg" xmlns:xlink="http://www.w3.org/1999/xlink">
<defs>
<symbol id="icon-check" viewBox="0 0 32 32">
<title>check</title>
<path class="path1" d="M12 21.563l14.125-14.125 1.875 1.875-16 16-7.438-7.438 1.875-1.875z"></path>
</symbol>
<symbol id="icon-delete" viewBox="0 0 32 32">
<title>delete</title>
<path class="path1" d="M25.313 8.563l-7.438 7.438 7.438 7.438-1.875 1.875-7.438-7.438-7.438 7.438-1.875-1.875 7.438-7.438-7.438-7.438 1.875-1.875 7.438 7.438 7.438-7.438z"></path>
</symbol>
<symbol id="icon-offline" viewBox="0 0 32 32">
<title>offline</title>
<path class="path1" d="M10.313 13.313h-2.313c-2.938 0-5.313 2.438-5.313 5.375s2.375 5.313 5.313 5.313h13zM4 7l1.688-1.688 22.313 22.313-1.688 1.688-2.688-2.625h-15.625c-4.438 0-8-3.563-8-8 0-4.313 3.438-7.813 7.688-8zM25.813 13.375c3.438 0.25 6.188 3.125 6.188 6.625 0 2.25-1.125 4.25-2.813 5.438l-1.938-1.938c1.25-0.688 2.063-2 2.063-3.5 0-2.188-1.813-4-4-4h-2v-0.688c0-4.063-3.25-7.313-7.313-7.313-1.25 0-2.375 0.25-3.375 0.813l-2-1.938c1.563-1 3.375-1.563 5.375-1.563 4.875 0 8.875 3.438 9.813 8.063z"></path>
</symbol>
<symbol id="icon-online" viewBox="0 0 32 32">
<title>online</title>
<path class="path1" d="M25.313 24c2.188 0 4-1.813 4-4s-1.813-4-4-4h-2v-0.688c0-4.063-3.25-7.313-7.313-7.313-3.375 0-6.188 2.25-7.063 5.313h-0.938c-2.938 0-5.313 2.438-5.313 5.375s2.375 5.313 5.313 5.313h17.313zM25.813 13.375c3.438 0.25 6.188 3.125 6.188 6.625 0 3.688-3 6.688-6.688 6.688h-17.313c-4.438 0-8-3.563-8-8 0-4.125 3.125-7.5 7.125-7.938 1.688-3.188 5-5.438 8.875-5.438 4.875 0 8.875 3.438 9.813 8.063z"></path>
</symbol>
<symbol id="icon-edit" viewBox="0 0 32 32">
<title>edit</title>
<path class="path1" d="M27.625 9.375l-2.438 2.438-5-5 2.438-2.438c0.5-0.5 1.375-0.5 1.875 0l3.125 3.125c0.5 0.5 0.5 1.375 0 1.875zM4 23l14.75-14.75 5 5-14.75 14.75h-5v-5z"></path>
</symbol>
<symbol id="icon-cart" viewBox="0 0 32 32">
<title>cart</title>
<path class="path1" d="M22.688 24c1.438 0 2.625 1.25 2.625 2.688s-1.188 2.625-2.625 2.625-2.688-1.188-2.688-2.625 1.25-2.688 2.688-2.688zM1.313 2.688h4.375l1.25 2.625h19.75c0.75 0 1.313 0.625 1.313 1.375 0 0.25-0.063 0.438-0.188 0.625l-4.75 8.625c-0.438 0.813-1.313 1.375-2.313 1.375h-9.938l-1.188 2.188-0.063 0.188c0 0.188 0.125 0.313 0.313 0.313h15.438v2.688h-16c-1.438 0-2.625-1.25-2.625-2.688 0-0.438 0.125-0.875 0.313-1.25l1.813-3.313-4.813-10.125h-2.688v-2.625zM9.313 24c1.438 0 2.688 1.25 2.688 2.688s-1.25 2.625-2.688 2.625-2.625-1.188-2.625-2.625 1.188-2.688 2.625-2.688z"></path>
</symbol>
<symbol id="icon-connecting" viewBox="0 0 32 32">
<title>connecting</title>
<path class="path1" d="M16 24v-4l5.313 5.313-5.313 5.375v-4c-5.875 0-10.688-4.813-10.688-10.688 0-2.063 0.625-4.063 1.688-5.688l1.938 1.938c-0.625 1.125-0.938 2.375-0.938 3.75 0 4.438 3.563 8 8 8zM16 5.313c5.875 0 10.688 4.813 10.688 10.688 0 2.063-0.625 4.063-1.688 5.688l-1.938-1.938c0.625-1.125 0.938-2.375 0.938-3.75 0-4.438-3.563-8-8-8v4l-5.313-5.313 5.313-5.375v4z"></path>
</symbol>
<symbol id="icon-add" viewBox="0 0 32 32">
<title>add</title>
<path class="path1" d="M2.688 21.313v-2.625h10.625v2.625h-10.625zM24 18.688h5.313v2.625h-5.313v5.375h-2.688v-5.375h-5.313v-2.625h5.313v-5.375h2.688v5.375zM18.688 8v2.688h-16v-2.688h16zM18.688 13.313v2.688h-16v-2.688h16z"></path>
</symbol>
</defs>
</svg>
